<svg width="1440" height="444" viewBox="0 0 1440 444" fill="none" xmlns="http://www.w3.org/2000/svg">
<path d="M0 40C0 21.1438 0 11.7157 5.85786 5.85786C11.7157 0 21.1438 0 40 0H457C475.856 0 485.284 0 491.142 5.85786C497 11.7157 497 21.1438 497 40V75.3245C497 94.1807 497 103.609 502.858 109.467C508.716 115.325 518.144 115.325 537 115.325H1400C1418.86 115.325 1428.28 115.325 1434.14 121.182C1440 127.04 1440 136.468 1440 155.325V406C1440 424.856 1440 434.284 1434.14 440.142C1428.28 446 1418.86 446 1400 446H40C21.1438 446 11.7157 446 5.85786 440.142C0 434.284 0 424.856 0 406V40Z" fill="#4F1395" fill-opacity="0.5"/>
</svg>
