<svg width="40" height="40" viewBox="0 0 40 40" fill="none" xmlns="http://www.w3.org/2000/svg">
<path d="M19.1538 4.64844H12.9222C7.79716 4.64844 4.58383 8.27677 4.58383 13.4134V27.2701C4.58383 32.4068 7.78216 36.0351 12.9222 36.0351H27.6288C32.7705 36.0351 35.9688 32.4068 35.9688 27.2701V20.5568" stroke="white" stroke-width="3" stroke-linecap="round" stroke-linejoin="round"/>
<path fill-rule="evenodd" clip-rule="evenodd" d="M14.713 18.2015L27.168 5.74648C28.7197 4.19648 31.2347 4.19648 32.7863 5.74648L34.8147 7.77482C36.3663 9.32648 36.3663 11.8432 34.8147 13.3932L22.2997 25.9082C21.6213 26.5865 20.7013 26.9682 19.7413 26.9682H13.498L13.6547 20.6682C13.678 19.7415 14.0563 18.8582 14.713 18.2015Z" stroke="white" stroke-width="3" stroke-linecap="round" stroke-linejoin="round"/>
<path d="M25.2753 7.6709L32.8853 15.2809" stroke="white" stroke-width="3" stroke-linecap="round" stroke-linejoin="round"/>
</svg>
