<svg width="40" height="40" viewBox="0 0 40 40" fill="none" xmlns="http://www.w3.org/2000/svg">
<path d="M15.262 34.6192V29.5079C15.262 28.2079 16.3219 27.1515 17.635 27.1428H22.4452C23.7646 27.1428 24.8342 28.2017 24.8342 29.5079V29.5079V34.635C24.8339 35.7388 25.7238 36.641 26.8384 36.6668H30.0452C33.2419 36.6668 35.8333 34.1013 35.8333 30.9365V30.9365V16.3966C35.8163 15.1515 35.2258 13.9824 34.23 13.2219L23.2629 4.47566C21.3416 2.95277 18.6103 2.95277 16.689 4.47566L5.77005 13.2378C4.77044 13.9952 4.17898 15.1663 4.16667 16.4124V30.9365C4.16667 34.1013 6.75813 36.6668 9.95486 36.6668H13.1616C14.3039 36.6668 15.23 35.7501 15.23 34.6192V34.6192" stroke="white" stroke-width="3" stroke-linecap="round" stroke-linejoin="round"/>
</svg>
