<svg width="193" height="29" viewBox="0 0 193 29" fill="none" xmlns="http://www.w3.org/2000/svg">
<path d="M10.6023 0.727272H14.1023V17.2273C14.1023 18.7197 13.8068 19.9962 13.2159 21.0568C12.6326 22.1174 11.8106 22.928 10.75 23.4886C9.68939 24.0417 8.44697 24.3182 7.02273 24.3182C5.71212 24.3182 4.53409 24.0795 3.48864 23.6023C2.45076 23.125 1.62879 22.4318 1.02273 21.5227C0.424242 20.6061 0.125 19.4924 0.125 18.1818H3.61364C3.61364 18.8258 3.76136 19.3826 4.05682 19.8523C4.35985 20.322 4.77273 20.6894 5.29545 20.9545C5.82576 21.2121 6.43182 21.3409 7.11364 21.3409C7.85606 21.3409 8.48485 21.1856 9 20.875C9.52273 20.5568 9.92045 20.0909 10.1932 19.4773C10.4659 18.8636 10.6023 18.1136 10.6023 17.2273V0.727272ZM39.429 12.3636C39.429 14.8485 38.9744 16.9848 38.0653 18.7727C37.1563 20.553 35.91 21.9242 34.3267 22.8864C32.7509 23.8409 30.9593 24.3182 28.9517 24.3182C26.9366 24.3182 25.1373 23.8409 23.554 22.8864C21.9782 21.9242 20.7358 20.5492 19.8267 18.7614C18.9176 16.9735 18.4631 14.8409 18.4631 12.3636C18.4631 9.87879 18.9176 7.74621 19.8267 5.96591C20.7358 4.17803 21.9782 2.80682 23.554 1.85227C25.1373 0.890151 26.9366 0.40909 28.9517 0.40909C30.9593 0.40909 32.7509 0.890151 34.3267 1.85227C35.91 2.80682 37.1563 4.17803 38.0653 5.96591C38.9744 7.74621 39.429 9.87879 39.429 12.3636ZM35.9517 12.3636C35.9517 10.4697 35.6449 8.875 35.0312 7.57954C34.4252 6.27651 33.5919 5.29167 32.5312 4.625C31.4782 3.95076 30.285 3.61364 28.9517 3.61364C27.6108 3.61364 26.4138 3.95076 25.3608 4.625C24.3078 5.29167 23.4744 6.27651 22.8608 7.57954C22.2547 8.875 21.9517 10.4697 21.9517 12.3636C21.9517 14.2576 22.2547 15.8561 22.8608 17.1591C23.4744 18.4545 24.3078 19.4394 25.3608 20.1136C26.4138 20.7803 27.6108 21.1136 28.9517 21.1136C30.285 21.1136 31.4782 20.7803 32.5312 20.1136C33.5919 19.4394 34.4252 18.4545 35.0312 17.1591C35.6449 15.8561 35.9517 14.2576 35.9517 12.3636ZM43.8068 24V0.727272H52.1023C53.9129 0.727272 55.4129 1.05682 56.6023 1.71591C57.7917 2.375 58.6818 3.27651 59.2727 4.42045C59.8636 5.55682 60.1591 6.83712 60.1591 8.26136C60.1591 9.69318 59.8598 10.9811 59.2614 12.125C58.6705 13.2614 57.7765 14.1629 56.5795 14.8295C55.3902 15.4886 53.8939 15.8182 52.0909 15.8182H46.3864V12.8409H51.7727C52.9167 12.8409 53.8447 12.6439 54.5568 12.25C55.2689 11.8485 55.7917 11.303 56.125 10.6136C56.4583 9.92424 56.625 9.14015 56.625 8.26136C56.625 7.38258 56.4583 6.60227 56.125 5.92045C55.7917 5.23864 55.2652 4.70454 54.5455 4.31818C53.8333 3.93182 52.8939 3.73864 51.7273 3.73864H47.3182V24H43.8068ZM67.7869 0.727272V24H64.2756V0.727272H67.7869ZM88.3438 13.2756C88.268 12.6032 87.9555 12.0824 87.4062 11.7131C86.857 11.339 86.1657 11.152 85.3324 11.152C84.7358 11.152 84.2197 11.2467 83.7841 11.4361C83.3485 11.6207 83.0099 11.8764 82.7685 12.2031C82.5317 12.5251 82.4134 12.892 82.4134 13.304C82.4134 13.6496 82.4938 13.9479 82.6548 14.1989C82.8205 14.4498 83.036 14.6605 83.3011 14.831C83.571 14.9967 83.8598 15.1364 84.1676 15.25C84.4754 15.3589 84.7713 15.4489 85.0554 15.5199L86.4759 15.8892C86.9399 16.0028 87.4157 16.1567 87.9034 16.3509C88.3911 16.545 88.8433 16.8007 89.2599 17.1179C89.6766 17.4351 90.0128 17.8281 90.2685 18.2969C90.5289 18.7656 90.6591 19.3267 90.6591 19.9801C90.6591 20.804 90.446 21.5355 90.0199 22.1747C89.5985 22.8139 88.9853 23.3182 88.1804 23.6875C87.3802 24.0568 86.4119 24.2415 85.2756 24.2415C84.1866 24.2415 83.2443 24.0687 82.4489 23.723C81.6534 23.3774 81.0308 22.8873 80.581 22.2528C80.1312 21.6136 79.8826 20.8561 79.8352 19.9801H82.0369C82.0795 20.5057 82.25 20.9437 82.5483 21.294C82.8513 21.6397 83.2372 21.8977 83.706 22.0682C84.1795 22.2339 84.6979 22.3168 85.2614 22.3168C85.8816 22.3168 86.4332 22.2197 86.9162 22.0256C87.4039 21.8267 87.7874 21.5521 88.0668 21.2017C88.3461 20.8466 88.4858 20.4323 88.4858 19.9588C88.4858 19.5279 88.3627 19.1752 88.1165 18.9006C87.875 18.6259 87.5459 18.3987 87.1293 18.2188C86.7173 18.0388 86.2509 17.8802 85.7301 17.7429L84.0114 17.2741C82.8466 16.9569 81.9233 16.4905 81.2415 15.875C80.5644 15.2595 80.2259 14.4451 80.2259 13.4318C80.2259 12.5937 80.4531 11.8622 80.9077 11.2372C81.3622 10.6122 81.9777 10.1269 82.7543 9.78125C83.5308 9.43087 84.4067 9.25568 85.3821 9.25568C86.367 9.25568 87.2358 9.4285 87.9886 9.77415C88.7462 10.1198 89.3428 10.5956 89.7784 11.2017C90.214 11.803 90.4413 12.4943 90.4602 13.2756H88.3438ZM100.022 19.4759V13.0909H102.152V24H100.064V22.1108H99.9506C99.6997 22.6932 99.2972 23.1785 98.7433 23.5668C98.194 23.9503 97.5098 24.142 96.6907 24.142C95.9899 24.142 95.3697 23.9882 94.8299 23.6804C94.2949 23.3679 93.8735 22.9062 93.5657 22.2955C93.2627 21.6847 93.1112 20.9295 93.1112 20.0298V13.0909H95.2347V19.7741C95.2347 20.5175 95.4407 21.1094 95.8526 21.5497C96.2646 21.9901 96.7996 22.2102 97.4577 22.2102C97.8555 22.2102 98.2508 22.1108 98.6438 21.9119C99.0415 21.7131 99.3706 21.4124 99.631 21.0099C99.8962 20.6075 100.026 20.0961 100.022 19.4759ZM105.006 28.0909V13.0909H107.08V14.8594H107.257C107.38 14.6321 107.558 14.3693 107.79 14.071C108.022 13.7727 108.344 13.5123 108.756 13.2898C109.168 13.0625 109.712 12.9489 110.389 12.9489C111.27 12.9489 112.056 13.1714 112.747 13.6165C113.438 14.0616 113.981 14.7031 114.374 15.5412C114.771 16.3793 114.97 17.3878 114.97 18.5668C114.97 19.7457 114.774 20.7566 114.381 21.5994C113.988 22.4375 113.448 23.0838 112.761 23.5384C112.075 23.9882 111.291 24.2131 110.411 24.2131C109.748 24.2131 109.205 24.1018 108.784 23.8793C108.367 23.6567 108.041 23.3963 107.804 23.098C107.567 22.7997 107.385 22.5346 107.257 22.3026H107.129V28.0909H105.006ZM107.087 18.5455C107.087 19.3125 107.198 19.9848 107.42 20.5625C107.643 21.1402 107.965 21.5923 108.386 21.919C108.808 22.241 109.324 22.402 109.935 22.402C110.569 22.402 111.099 22.2339 111.526 21.8977C111.952 21.5568 112.274 21.0952 112.491 20.5128C112.714 19.9304 112.825 19.2746 112.825 18.5455C112.825 17.8258 112.716 17.1795 112.499 16.6065C112.286 16.0336 111.964 15.5814 111.533 15.25C111.107 14.9186 110.574 14.7528 109.935 14.7528C109.319 14.7528 108.798 14.9115 108.372 15.2287C107.951 15.5459 107.631 15.9886 107.413 16.5568C107.196 17.125 107.087 17.7879 107.087 18.5455ZM122.051 24.2202C120.976 24.2202 120.051 23.9905 119.274 23.5312C118.502 23.0672 117.906 22.4162 117.484 21.5781C117.068 20.7353 116.859 19.7481 116.859 18.6165C116.859 17.4991 117.068 16.5142 117.484 15.6619C117.906 14.8097 118.493 14.1444 119.246 13.6662C120.003 13.188 120.889 12.9489 121.902 12.9489C122.518 12.9489 123.114 13.0507 123.692 13.2543C124.269 13.4579 124.788 13.7775 125.247 14.2131C125.706 14.6487 126.069 15.2145 126.334 15.9105C126.599 16.6018 126.732 17.4422 126.732 18.4318V19.1847H118.06V17.5938H124.651C124.651 17.035 124.537 16.5402 124.31 16.1094C124.082 15.6738 123.763 15.3305 123.351 15.0795C122.944 14.8286 122.465 14.7031 121.916 14.7031C121.32 14.7031 120.799 14.8499 120.354 15.1435C119.913 15.4323 119.572 15.8111 119.331 16.2798C119.094 16.7438 118.976 17.2481 118.976 17.7926V19.0355C118.976 19.7647 119.104 20.3849 119.359 20.8963C119.62 21.4077 119.982 21.7983 120.446 22.0682C120.91 22.3333 121.452 22.4659 122.072 22.4659C122.475 22.4659 122.842 22.4091 123.173 22.2955C123.505 22.1771 123.791 22.0019 124.033 21.7699C124.274 21.5379 124.459 21.2514 124.587 20.9105L126.597 21.2727C126.436 21.8646 126.147 22.383 125.73 22.8281C125.318 23.2685 124.8 23.6117 124.175 23.858C123.554 24.0994 122.847 24.2202 122.051 24.2202ZM129.088 24V13.0909H131.14V14.8239H131.254C131.453 14.2367 131.803 13.7751 132.305 13.4389C132.812 13.098 133.385 12.9276 134.024 12.9276C134.156 12.9276 134.313 12.9323 134.493 12.9418C134.677 12.9512 134.822 12.9631 134.926 12.9773V15.0085C134.841 14.9848 134.689 14.9588 134.471 14.9304C134.253 14.8973 134.036 14.8807 133.818 14.8807C133.316 14.8807 132.868 14.9872 132.475 15.2003C132.087 15.4086 131.779 15.6998 131.552 16.0739C131.325 16.4432 131.211 16.8646 131.211 17.3381V24H129.088ZM139.841 24.2415C139.149 24.2415 138.524 24.1136 137.966 23.858C137.407 23.5975 136.964 23.2211 136.637 22.7287C136.315 22.2363 136.154 21.6326 136.154 20.9176C136.154 20.3021 136.273 19.7955 136.51 19.3977C136.746 19 137.066 18.6851 137.468 18.4531C137.871 18.2211 138.321 18.0459 138.818 17.9276C139.315 17.8092 139.822 17.7192 140.338 17.6577C140.991 17.5819 141.521 17.5204 141.929 17.473C142.336 17.4209 142.632 17.3381 142.816 17.2244C143.001 17.1108 143.093 16.9261 143.093 16.6705V16.6207C143.093 16.0005 142.918 15.5199 142.568 15.179C142.222 14.8381 141.706 14.6676 141.02 14.6676C140.305 14.6676 139.741 14.8262 139.329 15.1435C138.922 15.456 138.64 15.804 138.484 16.1875L136.488 15.733C136.725 15.0701 137.071 14.535 137.525 14.1278C137.984 13.7159 138.512 13.4176 139.109 13.233C139.706 13.0436 140.333 12.9489 140.991 12.9489C141.427 12.9489 141.888 13.0009 142.376 13.1051C142.868 13.2045 143.328 13.3892 143.754 13.6591C144.185 13.929 144.538 14.3149 144.812 14.8168C145.087 15.3139 145.224 15.9602 145.224 16.7557V24H143.15V22.5085H143.065C142.928 22.7831 142.722 23.053 142.447 23.3182C142.172 23.5833 141.82 23.8035 141.389 23.9787C140.958 24.1539 140.442 24.2415 139.841 24.2415ZM140.302 22.5369C140.889 22.5369 141.391 22.4209 141.808 22.1889C142.229 21.9569 142.549 21.6539 142.767 21.2798C142.989 20.901 143.1 20.4962 143.1 20.0653V18.6591C143.025 18.7348 142.878 18.8059 142.66 18.8722C142.447 18.9337 142.203 18.9882 141.929 19.0355C141.654 19.0781 141.386 19.1184 141.126 19.1562C140.866 19.1894 140.648 19.2178 140.473 19.2415C140.061 19.2936 139.684 19.3812 139.343 19.5043C139.007 19.6274 138.737 19.8049 138.534 20.0369C138.335 20.2642 138.235 20.5672 138.235 20.946C138.235 21.4716 138.43 21.8693 138.818 22.1392C139.206 22.4044 139.701 22.5369 140.302 22.5369ZM152.136 24.2131C151.256 24.2131 150.47 23.9882 149.778 23.5384C149.092 23.0838 148.552 22.4375 148.159 21.5994C147.771 20.7566 147.577 19.7457 147.577 18.5668C147.577 17.3878 147.773 16.3793 148.166 15.5412C148.564 14.7031 149.108 14.0616 149.8 13.6165C150.491 13.1714 151.275 12.9489 152.151 12.9489C152.828 12.9489 153.372 13.0625 153.784 13.2898C154.201 13.5123 154.523 13.7727 154.75 14.071C154.982 14.3693 155.162 14.6321 155.29 14.8594H155.418V9.45455H157.541V24H155.467V22.3026H155.29C155.162 22.5346 154.977 22.7997 154.736 23.098C154.499 23.3963 154.172 23.6567 153.756 23.8793C153.339 24.1018 152.799 24.2131 152.136 24.2131ZM152.605 22.402C153.216 22.402 153.732 22.241 154.153 21.919C154.58 21.5923 154.902 21.1402 155.119 20.5625C155.342 19.9848 155.453 19.3125 155.453 18.5455C155.453 17.7879 155.344 17.125 155.126 16.5568C154.909 15.9886 154.589 15.5459 154.168 15.2287C153.746 14.9115 153.225 14.7528 152.605 14.7528C151.966 14.7528 151.433 14.9186 151.007 15.25C150.581 15.5814 150.259 16.0336 150.041 16.6065C149.828 17.1795 149.722 17.8258 149.722 18.5455C149.722 19.2746 149.83 19.9304 150.048 20.5128C150.266 21.0952 150.588 21.5568 151.014 21.8977C151.445 22.2339 151.975 22.402 152.605 22.402ZM160.572 24V13.0909H162.61V14.8665H162.745C162.973 14.2652 163.344 13.7964 163.86 13.4602C164.377 13.1193 164.994 12.9489 165.714 12.9489C166.443 12.9489 167.054 13.1193 167.547 13.4602C168.044 13.8011 168.411 14.2699 168.647 14.8665H168.761C169.021 14.2841 169.436 13.8201 170.004 13.4744C170.572 13.1241 171.249 12.9489 172.035 12.9489C173.025 12.9489 173.832 13.259 174.457 13.8793C175.087 14.4995 175.402 15.4347 175.402 16.6847V24H173.278V16.8835C173.278 16.1449 173.077 15.6098 172.674 15.2784C172.272 14.947 171.791 14.7812 171.233 14.7812C170.541 14.7812 170.004 14.9943 169.62 15.4205C169.237 15.8419 169.045 16.384 169.045 17.0469V24H166.929V16.7486C166.929 16.1567 166.744 15.6809 166.375 15.321C166.005 14.9612 165.525 14.7812 164.933 14.7812C164.53 14.7812 164.159 14.8878 163.818 15.1009C163.482 15.3092 163.209 15.6004 163.001 15.9744C162.797 16.3485 162.696 16.7817 162.696 17.2741V24H160.572ZM178.248 24V13.0909H180.371V24H178.248ZM179.32 11.4077C178.951 11.4077 178.634 11.2846 178.369 11.0384C178.108 10.7874 177.978 10.4891 177.978 10.1435C177.978 9.79309 178.108 9.49479 178.369 9.24858C178.634 8.99763 178.951 8.87216 179.32 8.87216C179.69 8.87216 180.004 8.99763 180.265 9.24858C180.53 9.49479 180.663 9.79309 180.663 10.1435C180.663 10.4891 180.53 10.7874 180.265 11.0384C180.004 11.2846 179.69 11.4077 179.32 11.4077ZM185.352 17.5227V24H183.228V13.0909H185.267V14.8665H185.402C185.653 14.2888 186.046 13.8248 186.581 13.4744C187.12 13.1241 187.8 12.9489 188.619 12.9489C189.362 12.9489 190.013 13.1051 190.572 13.4176C191.131 13.7254 191.564 14.1847 191.872 14.7955C192.18 15.4062 192.333 16.1615 192.333 17.0611V24H190.21V17.3168C190.21 16.526 190.004 15.9081 189.592 15.4631C189.18 15.0133 188.614 14.7884 187.895 14.7884C187.402 14.7884 186.964 14.8949 186.581 15.108C186.202 15.321 185.901 15.6335 185.679 16.0455C185.461 16.4527 185.352 16.9451 185.352 17.5227Z" fill="white"/>
</svg>
