<svg width="40" height="40" viewBox="0 0 40 40" fill="none" xmlns="http://www.w3.org/2000/svg">
<path fill-rule="evenodd" clip-rule="evenodd" d="M21.8404 6.96184L24.8861 13.0464C25.1846 13.6438 25.7608 14.058 26.4289 14.1538L33.2422 15.1345C34.9256 15.3776 35.5955 17.4177 34.3772 18.5867L29.4503 23.3209C28.9661 23.7864 28.7457 24.4557 28.8603 25.1129L30.023 31.7965C30.3093 33.4499 28.5496 34.7113 27.045 33.9291L20.9554 30.7713C20.3584 30.4615 19.6434 30.4615 19.0446 30.7713L12.955 33.9291C11.4504 34.7113 9.69066 33.4499 9.97874 31.7965L11.1397 25.1129C11.2543 24.4557 11.0339 23.7864 10.5497 23.3209L5.6228 18.5867C4.40453 17.4177 5.0744 15.3776 6.75777 15.1345L13.5711 14.1538C14.2392 14.058 14.8171 13.6438 15.1156 13.0464L18.1596 6.96184C18.9128 5.45738 21.0872 5.45738 21.8404 6.96184Z" stroke="white" stroke-width="3" stroke-linecap="round" stroke-linejoin="round"/>
</svg>
