<svg width="40" height="40" viewBox="0 0 40 40" fill="none" xmlns="http://www.w3.org/2000/svg">
<path d="M23.0828 7.0835V11.1168" stroke="white" stroke-width="3" stroke-linecap="round" stroke-linejoin="round"/>
<path d="M23.0828 29.5996V32.9729" stroke="white" stroke-width="3" stroke-linecap="round" stroke-linejoin="round"/>
<path d="M23.0828 23.8739V15.8389" stroke="white" stroke-width="3" stroke-linecap="round" stroke-linejoin="round"/>
<path fill-rule="evenodd" clip-rule="evenodd" d="M31.1702 33.3332C34.207 33.3332 36.6667 30.9041 36.6667 27.9051V23.5842C34.6572 23.5842 33.0389 21.986 33.0389 20.0016C33.0389 18.0171 34.6572 16.4172 36.6667 16.4172L36.6649 12.0946C36.6649 9.09558 34.2035 6.6665 31.1685 6.6665H8.83152C5.79648 6.6665 3.33507 9.09558 3.33507 12.0946L3.33333 16.5579C5.34278 16.5579 6.96113 18.0171 6.96113 20.0016C6.96113 21.986 5.34278 23.5842 3.33333 23.5842V27.9051C3.33333 30.9041 5.793 33.3332 8.82978 33.3332H31.1702Z" stroke="white" stroke-width="3" stroke-linecap="round" stroke-linejoin="round"/>
</svg>
